<svg width="34" height="34" viewBox="0 0 34 34" fill="none" xmlns="http://www.w3.org/2000/svg">
<path fill-rule="evenodd" clip-rule="evenodd" d="M8.5979 0.333008C4.17962 0.333008 0.5979 3.91473 0.5979 8.33301V25.6663C0.5979 30.0846 4.17962 33.6663 8.59789 33.6663H25.4021C29.8204 33.6663 33.4021 30.0846 33.4021 25.6663V8.33301C33.4021 3.91473 29.8204 0.333008 25.4021 0.333008H8.5979ZM26.7862 12.4777L23.0206 7.14114C22.8875 6.95252 22.5877 6.95252 22.4546 7.14114L18.689 12.4777C18.543 12.6845 18.7042 12.958 18.9719 12.958H21.7827C21.7454 13.0553 21.7251 13.1599 21.7251 13.2689L21.7251 21.0413C21.7251 22.0715 20.8184 22.9067 19.7 22.9067H18.35C17.7908 22.9067 17.3375 23.3243 17.3375 23.8394C17.3375 24.3545 17.7908 24.7721 18.35 24.7721H19.7C21.9368 24.7721 23.7501 23.1018 23.7501 21.0413L23.7501 13.2689C23.7501 13.1599 23.7298 13.0553 23.6925 12.958H26.5032C26.771 12.958 26.9321 12.6845 26.7862 12.4777ZM14.3 11.0926C13.1816 11.0926 12.275 11.9278 12.275 12.958L12.275 20.7304C12.275 20.8394 12.2547 20.9441 12.2173 21.0413H15.0281C15.2959 21.0413 15.457 21.3148 15.3111 21.5217L11.5454 26.8582C11.4123 27.0468 11.1126 27.0468 10.9795 26.8582L7.21383 21.5217C7.06789 21.3148 7.22902 21.0413 7.49681 21.0413H10.3076C10.2702 20.9441 10.2499 20.8394 10.2499 20.7304V12.958C10.2499 10.8976 12.0632 9.22727 14.3 9.22727L15.65 9.22727C16.2092 9.22727 16.6625 9.64485 16.6625 10.16C16.6625 10.6751 16.2092 11.0926 15.65 11.0926H14.3Z" fill="#8F9BB3"/>
</svg>
